# xmcd
#
# Track frame offsets:
#	150
#	16075
#	30540
#	45342
#	60125
#	74862
#	90064
#	104694
#	120124
#	135485
#	149721
#	164043
#	178951
#	192811
#	207133
#	214898
#	230558
#	245879
#	260127
#	275466
#
# Disc length: 3867 seconds
#
# Revision: 0
# Processed by: cddbd v1.5.2PL0 Copyright (c) Steve Scherf et al.
# Submitted via: EasyCDDAExtractor 16.0.6.1
#
DISCID=280f1914
DTITLE=Συλλογικός δίσκος - Το ρεμπέτικο τραγούδι 1932-1941 3
DYEAR=2009
DGENRE=Ρεμπέτικη
TTITLE0=Κάβουρας Γιώργος - Είμαι τεχνίτης ξακουστός [1940, Κώστα Σκαρβέλη]
TTITLE1=Παγιουμτζής Στράτος-Τσιτσάνης Βασίλης - Σε ζηλεύω, σε πονώ [1940, Βασί
TTITLE1=λη Τσιτσάνη]
TTITLE2=Παγιουμτζής Στράτος-Περπινιάδης Στελλάκης - Όμορφη Σμυρνιά [1939, Δημή
TTITLE2=τρη Γκόγκου]
TTITLE3=Δελλιάς Ανέστης - Το χαρέμι στο χαμάμ [1934, Ανέστη Δελλιά]
TTITLE4=Γκόγκος Δημήτρης-Χιώτης Μανώλης - Μ' έχεις μαγεμένο [1940, Δημήτρη Γκό
TTITLE4=γκου]
TTITLE5=Βαμβακάρης Μάρκος-Χατζηχρήστος Απόστολος - Ο Αντώνης ο βαρκάρης [1938,
TTITLE5=Σπύρου Περιστέρη]
TTITLE6=Δελλιάς Ανέστης-Παγιουμτζής Στράτος - Τον άνδρα σου κι εμένα [1937, Αν
TTITLE6=έστη Δελλιά]
TTITLE7=Μπάτης Γιώργος - Μπάτης ο δερβίσης [Γιώργου Μπάτη]
TTITLE8=Δελλιάς Ανέστης - Νίκος τρελλάκιας [1934, Ανέστη Δελλιά]
TTITLE9=Μαυρίδης Χαράλαμπος-Παγιουμτζής Στράτος - Πιο πέρα από το Ζάνειο [1940
TTITLE9=, Μανώλη Χιώτη]
TTITLE10=Σταυροπούλου Νταίζη - Μικροπαντρεμενάκι [1940, Στέλιου Δρόσου]
TTITLE11=Περπινιάδης Στελλάκης - Λαχανάδες [1934, Βαγγέλη Παπάζογλου]
TTITLE12=Παγιουμτζής Στράτος-Καλλέλη Νότα - Το μινόρε της ταβέρνας [1939, Πανα
TTITLE12=γιώτη Τούντα]
TTITLE13=Βαμβακάρης Μάρκος-Χατζηχρήστος Απόστολος - Γειά σας φανταράκια μας [1
TTITLE13=940, Μάρκου Βαμβακάρη]
TTITLE14=Παπαϊωάννου Γιάννης-Χατζηχρήστος Απόστολος - Βαγγελίτσα [1939, Γιάννη
TTITLE14=Παπαϊωάννου]
TTITLE15=Συνογιάννης Κ.-Συνογιάννης Χρ. - Αλάνης πια δεν είμ' εγώ [1940, Παν. 
TTITLE15=Τούντα-Β. Μαυροφρύδη]
TTITLE16=Δελλιάς Ανέστης - Ο πόνος του πρεζάκια [1936, Ανέστη Δελλιά]
TTITLE17=Περπινιάδης Στελλάκης-Χρυσίνης Π. - Ξελογιάστρα [1937, Βασίλη Τσιτσάν
TTITLE17=η]
TTITLE18=Κασιμάτης Ζαχαρίας - Μπελεντέρια (ή Μπελαδέρια) [1933, Σπύρου Περιστέ
TTITLE18=ρη]
TTITLE19=Διαμαντίδης Αντώνης ή Νταλγκάς - Το μπαγλαμαδάκι σπάσε (ή πάψε) [1932
TTITLE19=, Αντώνη Διαμαντίδη]
EXTD=
EXTT0=
EXTT1=
EXTT2=
EXTT3=
EXTT4=
EXTT5=
EXTT6=
EXTT7=
EXTT8=
EXTT9=
EXTT10=
EXTT11=
EXTT12=
EXTT13=
EXTT14=
EXTT15=
EXTT16=
EXTT17=
EXTT18=
EXTT19=
PLAYORDER=
